<svg width="60" height="60" viewBox="0 0 60 60" fill="none" xmlns="http://www.w3.org/2000/svg">
<path d="M14.9434 27.6211H16.5538V32.4234H14.9434V27.6211Z" fill="black"/>
<path d="M30.8203 27.625H32.4308V32.4273H30.8203V27.625Z" fill="black"/>
<path d="M24.3779 27.6211H25.9884V32.4234H24.3779V27.6211Z" fill="black"/>
<path d="M17.916 25.2188H19.5265V34.8188H17.916V25.2188Z" fill="black"/>
<path d="M27.5986 25.2188H29.2091V34.8188H27.5986V25.2188Z" fill="black"/>
<path d="M21.1416 22.0195H22.7521V38.0181H21.1416V22.0195Z" fill="black"/>
<path d="M12.2783 29.2227H13.8888V30.8235H12.2783V29.2227Z" fill="black"/>
<path d="M34.8271 15.6211H36.4376V44.4014H34.8271V15.6211Z" fill="black"/>
<path d="M47.672 27.1949L46.5299 26.0625L43.6846 28.8934L40.8393 26.0625L39.6973 27.1949L42.5476 30.0208L39.6973 32.8513L40.8393 33.9837L43.6846 31.1528L46.5299 33.9837L47.672 32.8513L44.822 30.0208L47.672 27.1949Z" fill="black"/>
</svg>
