<svg width="60" height="60" viewBox="0 0 60 60" fill="none" xmlns="http://www.w3.org/2000/svg">
<path d="M40.457 34.7734H42.0675V39.5758H40.457V34.7734Z" fill="black"/>
<path d="M17.9082 34.7734H19.5187V39.5758H17.9082V34.7734Z" fill="black"/>
<path d="M20.3594 33.2031H23.5803V41.2023H20.3594V33.2031Z" fill="black"/>
<path d="M36.4307 33.2031H39.6516V41.2023H36.4307V33.2031Z" fill="black"/>
<path d="M29.9882 18.836C27.4523 18.8273 24.9588 19.4866 22.7584 20.7472C20.5579 22.0075 18.7281 23.8252 17.4528 26.0169C16.1775 28.2086 15.5015 30.6977 15.4932 33.2336V38.031H17.1036V33.2336C17.1036 28.6302 19.5595 24.3768 23.5459 22.0753C27.5323 19.7737 32.4439 19.7737 36.4305 22.0753C40.4169 24.3769 42.8728 28.6305 42.8728 33.2336V38.031H44.4833V33.2336C44.4749 30.6977 43.7989 28.2086 42.5236 26.0169C41.2482 23.8252 39.4184 22.0075 37.2181 20.7472C35.0176 19.4866 32.5242 18.8274 29.9882 18.836Z" fill="black"/>
</svg>
