<svg width="60" height="60" viewBox="0 0 60 60" fill="none" xmlns="http://www.w3.org/2000/svg">
<path d="M30.1966 13.7687C32.4665 13.7687 34.3178 15.6141 34.3178 17.8899V28.0365C34.3178 30.3064 32.4724 32.1577 30.1966 32.1577C27.9208 32.1577 26.0754 30.3123 26.0754 28.0365V17.8899C26.0754 15.62 27.9208 13.7687 30.1966 13.7687ZM30.1966 12C26.948 12 24.3066 14.6354 24.3066 17.8899V28.0365C24.3066 31.2851 26.9421 33.9264 30.1966 33.9264C33.4452 33.9264 36.0866 31.291 36.0866 28.0365V17.8899C36.0866 14.6413 33.4511 12 30.1966 12Z" fill="#141414"/>
<path d="M36.0807 46.2314H24.3066V48.0002H36.0807V46.2314Z" fill="#231F20"/>
<path d="M31.0803 37.458H29.3115V47.9997H31.0803V37.458Z" fill="#231F20"/>
<path d="M39.6237 26.498V28.0368C39.6237 33.231 35.3964 37.4642 30.1962 37.4642C24.9961 37.4642 20.7688 33.2369 20.7688 28.0368V26.498H19V28.0368C19 34.2097 24.0233 39.2329 30.1962 39.2329C36.3692 39.2329 41.3925 34.2097 41.3925 28.0368V26.498H39.6237Z" fill="#141414"/>
</svg>
