<svg width="60" height="60" viewBox="0 0 60 60" fill="none" xmlns="http://www.w3.org/2000/svg">
<path d="M30 15.6064C37.9357 15.6064 44.3936 22.0643 44.3936 30C44.3936 37.9357 37.9357 44.3936 30 44.3936C22.0643 44.3936 15.6064 37.9357 15.6064 30C15.6064 22.0643 22.0643 15.6064 30 15.6064ZM30 14C21.1647 14 14 21.1647 14 30C14 38.8353 21.1647 46 30 46C38.8353 46 46 38.8353 46 30C46 21.1647 38.8353 14 30 14Z" fill="#231F20"/>
<path d="M24.8224 14.8623C24.5439 14.9587 24.2708 15.0604 23.9977 15.1675L23.4141 15.6816C25.4917 18.0591 26.7983 20.0993 27.6336 21.9466C28.153 21.7967 28.6885 21.6896 29.2454 21.6414C28.3833 19.6334 27.0232 17.4165 24.8277 14.8623H24.8224Z" fill="#231F20"/>
<path d="M15.6276 22.958C15.4991 23.2204 15.376 23.4828 15.2635 23.7505L15.21 24.5377C18.3586 24.7518 20.7254 25.2713 22.6209 25.9834C22.8833 25.5015 23.1939 25.0464 23.5473 24.6287C21.5179 23.8201 18.9904 23.215 15.6276 22.9634V22.958Z" fill="#231F20"/>
<path d="M35.4673 15.21C35.2531 18.3586 34.7337 20.7254 34.0215 22.6209C34.5034 22.8833 34.9586 23.1939 35.3762 23.5473C36.1848 21.5179 36.7899 18.9904 37.0416 15.6276C36.7792 15.4991 36.5168 15.376 36.2491 15.2635L35.4619 15.21H35.4673Z" fill="#231F20"/>
<path d="M44.3188 23.4092C41.9413 25.4868 39.9011 26.7934 38.0537 27.6287C38.2036 28.1481 38.3107 28.6836 38.3589 29.2405C40.367 28.3784 42.5838 27.0183 45.138 24.8228C45.0417 24.5444 44.9399 24.2713 44.8328 23.9982L44.3188 23.4145V23.4092Z" fill="#231F20"/>
<path d="M32.3725 38.0537C31.8531 38.2036 31.3176 38.3107 30.7607 38.3589C31.6229 40.367 32.983 42.5838 35.1784 45.138C35.4569 45.0417 35.7353 44.9399 36.003 44.8328L36.5867 44.3241C34.5091 41.9466 33.2025 39.9065 32.3672 38.0591L32.3725 38.0537Z" fill="#231F20"/>
<path d="M37.3785 34.022C37.1161 34.5039 36.8056 34.959 36.4521 35.3767C38.4816 36.1853 41.009 36.7904 44.3718 37.042C44.5003 36.7797 44.6235 36.5173 44.7359 36.2495L44.7895 35.4624C41.6409 35.2482 39.2741 34.7288 37.3785 34.0166V34.022Z" fill="#231F20"/>
<path d="M24.6233 36.4521C23.8148 38.4816 23.2097 41.009 22.958 44.3718C23.2204 44.5003 23.4828 44.6235 23.7505 44.7359L24.5377 44.7895C24.7518 41.6409 25.2713 39.2741 25.9834 37.3785C25.5015 37.1161 25.0464 36.8056 24.6287 36.4521H24.6233Z" fill="#231F20"/>
<path d="M21.6356 30.7602C19.6275 31.6224 17.4107 32.9825 14.8564 35.1779C14.9528 35.4564 15.0546 35.7348 15.1617 36.0025L15.6757 36.5862C18.0532 34.5086 20.0934 33.202 21.9408 32.3667C21.7909 31.8473 21.6838 31.3118 21.6356 30.7549V30.7602Z" fill="#231F20"/>
<path d="M29.9997 35.8685C33.2409 35.8685 35.8685 33.2409 35.8685 29.9997C35.8685 26.7584 33.2409 24.1309 29.9997 24.1309C26.7584 24.1309 24.1309 26.7584 24.1309 29.9997C24.1309 33.2409 26.7584 35.8685 29.9997 35.8685Z" stroke="#231F20" stroke-width="1.60643" stroke-miterlimit="10"/>
<path d="M29.9992 21.5976C34.6365 21.5976 38.4008 25.3567 38.4008 29.9992C38.4008 34.6418 34.6418 38.4008 29.9992 38.4008C25.3567 38.4008 21.5976 34.6418 21.5976 29.9992C21.5976 25.3567 25.3567 21.5976 29.9992 21.5976ZM29.9992 19.9912C24.4838 19.9912 19.9912 24.4785 19.9912 29.9992C19.9912 35.52 24.4785 40.0073 29.9992 40.0073C35.52 40.0073 40.0073 35.52 40.0073 29.9992C40.0073 24.4785 35.52 19.9912 29.9992 19.9912Z" fill="#231F20"/>
</svg>
